<?xml version="1.0" standalone="no"?>
<!DOCTYPE svg PUBLIC "-//W3C//DTD SVG 20010904//EN"
 "http://www.w3.org/TR/2001/REC-SVG-20010904/DTD/svg10.dtd">
<svg version="1.0" xmlns="http://www.w3.org/2000/svg"
 width="1280.000000pt" height="1280.000000pt" viewBox="0 0 1280.000000 1280.000000"
 preserveAspectRatio="xMidYMid meet">
<metadata>
Created by potrace 1.14, written by Peter Selinger 2001-2017
</metadata>
<g transform="translate(0.000000,1280.000000) scale(0.100000,-0.100000)"
fill="#000000" stroke="none">
<path d="M3785 8646 c-207 -56 -474 -161 -645 -253 -696 -374 -1105 -928
-1204 -1633 -10 -71 -17 -247 -22 -540 -7 -427 -9 -2049 -2 -2055 2 -1 577
-10 1278 -19 1406 -18 1316 -20 1556 44 158 42 284 90 449 170 634 310 1042
847 1185 1560 18 85 33 157 36 159 2 2 4 -9 4 -25 0 -16 11 -81 24 -144 105
-502 376 -923 803 -1247 233 -178 547 -338 858 -437 217 -69 116 -67 1281 -34
l1049 30 59 36 c142 85 238 191 306 337 68 144 90 275 88 525 -1 161 -13 420
-16 349 -4 -82 -49 -189 -116 -273 -69 -86 -232 -191 -372 -240 l-69 -24 -970
-12 -970 -12 -123 40 c-495 165 -848 501 -1010 963 -66 187 -70 226 -76 754
-3 264 -9 652 -12 863 l-6 382 883 0 882 0 106 -36 c669 -227 1064 -677 1097
-1250 4 -60 4 -131 0 -157 l-7 -47 -562 1 c-309 0 -699 4 -867 8 l-305 6 -69
33 c-37 17 -90 50 -116 72 -97 81 -196 243 -251 410 -22 67 -28 78 -29 51 0
-55 47 -271 81 -367 45 -128 138 -306 213 -405 203 -269 529 -474 879 -554 75
-17 513 -19 982 -6 239 7 240 7 320 39 263 105 435 289 481 516 15 69 14 94 0
269 -9 105 -25 245 -36 310 -124 719 -496 1251 -1110 1589 -214 118 -570 236
-764 255 -74 7 -2480 -15 -2533 -23 l-33 -5 0 -198 c0 -109 -3 -201 -7 -204
-3 -4 -20 19 -36 50 -65 128 -190 253 -311 312 l-61 30 -965 26 c-531 14
-1003 27 -1050 30 -69 4 -102 0 -175 -19z m1507 -746 c649 -11 615 -7 762 -82
137 -68 239 -152 302 -247 l29 -44 3 -406 3 -406 -33 58 c-86 151 -233 266
-429 338 l-84 31 -550 8 c-550 8 -594 6 -715 -25 -434 -112 -789 -392 -978
-771 -77 -154 -141 -373 -156 -534 l-7 -65 29 85 c82 246 223 433 378 500 83
36 141 39 985 46 l837 7 7 -79 c13 -152 -28 -384 -96 -544 -160 -378 -486
-656 -979 -836 l-149 -54 -887 0 -886 0 6 648 c11 1160 12 1162 77 1350 78
223 190 408 345 571 188 197 390 322 694 427 l95 33 405 0 c223 0 669 -4 992
-9z"/>
</g>
</svg>
