<?xml version="1.0" standalone="no"?>
<!DOCTYPE svg PUBLIC "-//W3C//DTD SVG 20010904//EN"
 "http://www.w3.org/TR/2001/REC-SVG-20010904/DTD/svg10.dtd">
<svg version="1.0" xmlns="http://www.w3.org/2000/svg"
 width="1280.000000pt" height="1280.000000pt" viewBox="0 0 1280.000000 1280.000000"
 preserveAspectRatio="xMidYMid meet">
<metadata>
Created by potrace 1.14, written by Peter Selinger 2001-2017
</metadata>
<g transform="translate(0.000000,1280.000000) scale(0.100000,-0.100000)"
fill="#000000" stroke="none">
<path d="M3760 8634 c-249 -67 -531 -189 -767 -331 -89 -53 -233 -152 -253
-173 -3 -3 -27 -23 -55 -45 -72 -56 -240 -227 -312 -316 -217 -267 -363 -596
-424 -954 -27 -157 -29 -265 -35 -1567 -5 -1035 -4 -1078 13 -1079 37 -2 433
-7 1803 -25 272 -4 545 -7 605 -9 137 -2 203 7 380 51 55 14 143 41 195 60 52
19 100 36 105 38 67 20 328 156 431 224 267 177 482 397 642 658 46 76 151
281 156 307 2 7 7 23 13 37 39 96 93 271 109 353 2 12 9 47 14 77 6 30 13 74
16 96 3 23 9 54 14 70 l8 29 2 -35 c7 -170 90 -461 191 -669 264 -544 786
-967 1471 -1192 84 -28 176 -55 203 -60 58 -12 102 -12 650 5 99 3 272 8 385
11 113 3 264 8 335 10 72 2 231 7 355 10 124 4 271 8 327 10 l101 3 85 56
c207 136 328 348 354 618 7 72 8 265 3 443 l-3 90 -17 -55 c-28 -91 -51 -130
-128 -215 -70 -78 -199 -159 -334 -209 -65 -25 -76 -26 -395 -31 -442 -9 -845
-13 -1283 -15 l-365 -2 -110 37 c-98 33 -332 137 -345 154 -3 3 -16 12 -30 19
-58 30 -205 148 -285 229 -109 112 -199 238 -269 378 -59 120 -121 294 -132
371 -3 27 -9 53 -12 58 -6 10 -8 144 -16 901 -6 536 -8 834 -7 852 1 17 1752
10 1807 -7 512 -160 873 -440 1050 -814 41 -87 88 -232 99 -306 22 -147 26
-333 7 -352 -9 -9 -990 -11 -1502 -4 -187 3 -222 6 -272 24 -161 58 -286 201
-381 437 -41 102 -46 90 -17 -43 87 -407 299 -727 622 -939 153 -101 300 -165
497 -217 l93 -25 472 5 c632 5 654 7 746 43 235 91 386 227 464 421 24 59 41
145 39 195 -16 440 -102 820 -253 1130 -56 114 -78 153 -157 271 -206 309
-539 579 -917 743 -160 70 -354 131 -531 168 -43 9 -508 8 -1345 -1 -971 -11
-1264 -16 -1269 -22 -8 -7 -8 -29 -10 -258 l-1 -188 -46 92 c-65 129 -192 258
-321 324 -24 12 -69 17 -180 21 -82 2 -233 7 -338 10 -104 3 -257 7 -340 10
-82 2 -244 7 -360 11 -269 8 -362 11 -685 18 -262 6 -266 6 -360 -20z m1470
-729 c667 -10 656 -10 732 -38 170 -65 317 -173 396 -292 l32 -48 1 -276 c0
-152 2 -340 3 -418 l2 -143 -31 58 c-52 99 -117 172 -212 241 -102 74 -253
139 -339 146 -64 6 -553 14 -869 15 -225 1 -246 -1 -345 -25 -356 -87 -677
-298 -872 -572 -113 -158 -218 -396 -254 -578 -17 -87 -25 -147 -20 -152 3 -4
6 1 6 9 0 9 20 60 43 116 96 220 229 363 386 414 65 21 82 21 920 25 701 4
855 2 862 -8 13 -21 8 -249 -7 -334 -66 -382 -293 -700 -661 -928 -114 -70
-225 -122 -398 -187 l-139 -52 -896 -2 -895 -1 1 215 c1 118 5 510 9 870 6
586 8 665 25 747 65 316 237 615 479 831 171 153 361 260 611 342 l115 38 455
-3 c250 -2 637 -7 860 -10z"/>
</g>
</svg>
